<svg width="26" height="26" viewBox="0 0 26 26" fill="none" xmlns="http://www.w3.org/2000/svg">
<g clip-path="url(#clip0_1_6214)">
<path d="M19.7144 7.37607C19.7144 7.31395 19.6349 7.28533 19.591 7.32929L19.0436 7.87747C18.3993 8.5156 17.7406 9.13935 17.1273 9.79668C16.2818 10.6843 15.4146 11.548 14.5571 12.4188C14.0995 12.8842 13.666 13.3784 13.1773 13.8102C13.0833 13.8944 12.9725 13.9575 12.8522 13.9953C12.732 14.0331 12.605 14.0448 12.4799 14.0296C12.3547 14.0144 12.2343 13.9726 12.1265 13.9071C12.0188 13.8415 11.9262 13.7537 11.8551 13.6495C11.7286 13.4681 11.6713 13.2472 11.6937 13.027C11.7162 12.8069 11.8168 12.6021 11.9772 12.45C12.6264 11.8166 13.242 11.1473 13.8768 10.4996C14.3559 10.0198 14.8349 9.53998 15.3284 9.06018C16.2243 8.15815 17.1193 7.25372 18.0136 6.3469C18.035 6.32532 18.0305 6.28894 18.0024 6.2776C17.955 6.25853 17.9037 6.27253 17.8579 6.27253H7.09541C6.89059 6.25297 6.68474 6.29739 6.50614 6.39968C6.37211 6.48549 6.2626 6.60463 6.18828 6.74549C6.11397 6.88635 6.0774 7.04411 6.08215 7.20335C6.07018 8.78909 6.08215 10.3748 6.08215 11.9606C6.08215 12.0038 6.06059 12.0637 6.12527 12.0805C6.18995 12.0973 6.19474 12.0565 6.22588 12.0254C6.82952 11.404 7.42358 10.7827 8.04398 10.1685C8.45839 9.75109 8.88237 9.34327 9.29678 8.92824C9.71118 8.51321 10.0561 8.14135 10.4394 7.75271C10.5289 7.63544 10.6409 7.53725 10.7688 7.46392C10.8968 7.39059 11.038 7.3436 11.1844 7.3257C11.4265 7.31988 11.6611 7.41018 11.837 7.57692C12.0129 7.74365 12.1158 7.97328 12.1233 8.21572C12.1247 8.35106 12.0974 8.48517 12.0433 8.60921C11.9892 8.73325 11.9096 8.84441 11.8095 8.93543C11.1053 9.65513 10.4178 10.3748 9.6992 11.0945C9.18659 11.5959 8.68595 12.1117 8.17813 12.6179C7.45951 13.3376 6.76244 14.0429 6.0582 14.7602C5.94801 14.873 5.89292 15.0337 5.76117 15.1369C4.98746 15.739 4.35986 16.4923 3.65801 17.1665C3.62386 17.1951 3.59837 17.2327 3.5844 17.2751C3.57044 17.3175 3.56855 17.363 3.57896 17.4064C3.62903 17.8116 3.54487 18.222 3.33942 18.5747C3.12938 18.9481 2.78769 19.2296 2.38126 19.3639C2.07455 19.4789 1.73974 19.4957 1.4231 19.4119C1.01765 19.3063 0.656151 19.0744 0.390687 18.7498C0.193781 18.5195 0.0651673 18.2386 0.0194006 17.9389C-0.0248813 17.6761 -0.0102406 17.4068 0.062262 17.1503C0.134765 16.8939 0.263314 16.6569 0.438595 16.4563C0.693659 16.1501 1.05124 15.9471 1.44466 15.8854C1.66918 15.8326 1.90283 15.8326 2.12735 15.8854C2.19435 15.9031 2.26521 15.8995 2.33005 15.875C2.45848 15.8264 2.53703 15.6989 2.63293 15.6007C3.13817 15.083 3.654 14.5732 4.16583 14.0693C4.20548 14.0324 4.2367 13.9874 4.25737 13.9373C4.27804 13.8872 4.28767 13.8332 4.2856 13.779C4.2856 11.5695 4.2856 9.35766 4.2856 7.14817C4.28651 6.75847 4.37234 6.37367 4.53712 6.02063C4.73753 5.56874 5.06243 5.18343 5.47372 4.90989C5.89 4.6149 6.38665 4.45497 6.89659 4.45169H18.9215C19.1789 4.44179 19.4355 4.48761 19.6736 4.58603C19.7311 4.61242 19.7671 4.58602 19.8102 4.54283C20.1982 4.1446 20.6031 3.76317 20.9815 3.35533C21.2426 3.07705 21.5133 2.80836 21.7888 2.54447C21.9612 2.38133 21.9565 2.39333 21.7888 2.2326C21.6583 2.12753 21.5371 2.01163 21.4263 1.88621C21.3233 1.76946 21.2256 1.63546 21.2217 1.47977C21.2197 1.40145 21.2352 1.32367 21.2672 1.25214C21.2991 1.18061 21.3466 1.11713 21.4062 1.06636C21.4657 1.01559 21.5359 0.978807 21.6115 0.958709C22.1098 0.790778 22.62 0.663637 23.1206 0.500504C23.5063 0.375755 23.8967 0.260604 24.292 0.157447C24.4793 0.0811362 24.6758 0.0295219 24.8764 0.00390625C25.3148 0.00390625 25.4921 0.385358 25.4034 0.747609C25.3364 1.0115 25.2645 1.27539 25.195 1.53688C25.1256 1.79837 25.0417 2.10064 24.9699 2.38612C24.898 2.67161 24.8621 2.88992 24.795 3.13942C24.7372 3.42514 24.6571 3.70588 24.5555 3.97907C24.5269 4.04722 24.4831 4.10785 24.4274 4.15625C24.3716 4.20464 24.3054 4.23948 24.234 4.25805C24.1626 4.27663 24.0879 4.27844 24.0157 4.26334C23.9435 4.24824 23.8757 4.21663 23.8177 4.17099C23.6575 4.03371 23.5063 3.88627 23.3649 3.72958C23.2763 3.64561 23.226 3.62402 23.1254 3.72958C22.5098 4.35785 21.8873 4.97924 21.2669 5.60496C21.238 5.63411 21.2029 5.65829 21.181 5.69297C21.1699 5.71041 21.1625 5.72991 21.1591 5.75029C21.1558 5.77067 21.1566 5.79151 21.1614 5.81158C21.1711 5.85152 21.1972 5.88537 21.2153 5.92228C21.4287 6.3582 21.5336 6.83975 21.5205 7.3257C21.5205 11.2337 21.5205 15.1417 21.5205 19.0497C21.5412 19.6867 21.3383 20.3109 20.947 20.8137C20.5558 21.3164 20.0009 21.6659 19.379 21.8013C19.1015 21.8563 18.8182 21.8756 18.5358 21.8589C16.1261 21.8589 13.7155 21.8589 11.3041 21.8589C11.2553 21.8552 11.2063 21.8621 11.1605 21.879C11.1146 21.896 11.0729 21.9227 11.0382 21.9573C10.663 22.3379 10.2845 22.7154 9.90281 23.0896C9.87853 23.1147 9.86046 23.1451 9.85006 23.1784C9.83966 23.2118 9.83721 23.2471 9.84293 23.2815C9.86567 23.488 9.86567 23.6964 9.84293 23.9029C9.80626 24.2041 9.69111 24.4903 9.50906 24.7329C9.327 24.9754 9.08444 25.1657 8.80572 25.2847C8.51252 25.426 8.18334 25.4745 7.86193 25.4239C7.62097 25.394 7.38874 25.3146 7.17978 25.1908C6.97081 25.067 6.7896 24.9013 6.64747 24.7041C6.44385 24.4059 6.32617 24.0573 6.30732 23.6966C6.28916 23.3599 6.37263 23.0255 6.54686 22.737C6.6675 22.5166 6.83307 22.3241 7.0328 22.172C7.23254 22.02 7.46198 21.9116 7.70623 21.8541C7.92925 21.8193 8.15632 21.8193 8.37934 21.8541C8.45127 21.861 8.5238 21.8502 8.5906 21.8226C8.6574 21.795 8.71645 21.7515 8.7626 21.6958C9.50997 20.9281 10.2669 20.17 11.0215 19.4071C11.582 18.841 12.1409 18.274 12.6982 17.7062C13.3594 17.0377 14.0229 16.3708 14.6888 15.7054C15.2158 15.1753 15.7524 14.6523 16.2746 14.1173C16.3777 14.0107 16.506 13.932 16.6476 13.8884C16.7892 13.8448 16.9395 13.8378 17.0846 13.8679C17.2296 13.8981 17.3647 13.9645 17.4773 14.0609C17.5899 14.1573 17.6763 14.2807 17.7286 14.4196C17.8082 14.5864 17.8316 14.7745 17.7953 14.9558C17.759 15.137 17.665 15.3016 17.5274 15.4248C16.6051 16.3532 15.6781 17.2768 14.7559 18.2052C14.2912 18.685 13.8385 19.1504 13.3737 19.6158C13.2764 19.6978 13.1851 19.7868 13.1007 19.8821C13.0719 19.9181 13.0144 19.9493 13.0312 19.9973C13.0442 20.0345 13.0947 20.0299 13.1391 20.0293C13.163 20.0289 13.1869 20.0309 13.2109 20.0309C15.0697 20.0309 16.9285 20.0309 18.7873 20.0309C18.9868 20.0307 19.1813 19.9682 19.3436 19.8521C19.5059 19.736 19.628 19.5721 19.6928 19.3831C19.7147 19.3151 19.722 19.2431 19.7144 19.172C19.7144 15.2408 19.7144 11.3088 19.7144 7.37607ZM8.11824 22.9769C7.95384 22.9754 7.79517 23.0373 7.67519 23.1499C7.5552 23.2625 7.48311 23.417 7.47388 23.5814C7.46658 23.6667 7.47667 23.7525 7.50355 23.8338C7.53043 23.915 7.57352 23.9899 7.63022 24.054C7.68692 24.118 7.75603 24.1698 7.83335 24.2062C7.91066 24.2427 7.99458 24.263 8.07998 24.2659C8.16538 24.2688 8.25048 24.2543 8.33011 24.2233C8.40974 24.1922 8.48223 24.1453 8.54317 24.0853C8.60411 24.0253 8.65223 23.9535 8.6846 23.8743C8.71697 23.7951 8.73292 23.7102 8.73146 23.6246C8.73533 23.4574 8.67303 23.2955 8.55815 23.1741C8.44327 23.0528 8.28513 22.9819 8.11824 22.9769ZM2.3596 17.8948C2.41721 17.7432 2.42679 17.5665 2.36226 17.4178C2.26094 17.1841 1.98419 17.0116 1.76804 17.0225C1.6075 17.0324 1.45701 17.1041 1.34806 17.2226C1.23911 17.3411 1.18017 17.4972 1.18356 17.6582C1.17845 17.7402 1.19059 17.8222 1.2192 17.8991C1.2478 17.976 1.29223 18.046 1.34961 18.1046C1.40698 18.1632 1.47601 18.2091 1.55223 18.2392C1.62844 18.2694 1.71013 18.2831 1.79199 18.2796C1.87339 18.281 1.95421 18.2657 2.02948 18.2346C2.10474 18.2035 2.17286 18.1573 2.22963 18.0989C2.28641 18.0405 2.33064 17.971 2.3596 17.8948Z" fill="url(#paint0_linear_1_6214)"/>
<path d="M10.9852 15.4943C10.9903 15.6115 10.9702 15.7285 10.9264 15.8373C10.8826 15.9461 10.8161 16.0443 10.7313 16.1252C10.2522 16.6194 9.77314 17.1016 9.27969 17.591L7.78496 19.1144C7.69875 19.2169 7.5928 19.3009 7.47346 19.3615C7.35411 19.4221 7.2238 19.458 7.0903 19.4671C6.95767 19.4693 6.82618 19.4422 6.70517 19.3878C6.58417 19.3334 6.47663 19.2529 6.39019 19.1521C6.30375 19.0514 6.24053 18.9328 6.20504 18.8048C6.16955 18.6767 6.16265 18.5425 6.18484 18.4115C6.22016 18.198 6.32653 18.0027 6.48666 17.8573C7.12543 17.2176 7.7642 16.5779 8.40298 15.9381C8.73594 15.5999 9.0689 15.2616 9.38988 14.9113C9.50529 14.7851 9.65233 14.692 9.81575 14.6418C9.97918 14.5916 10.153 14.5861 10.3193 14.6259C10.5096 14.6782 10.6777 14.7913 10.7979 14.9481C10.9181 15.1048 10.9839 15.2966 10.9852 15.4943Z" fill="#326EEF"/>
</g>
<defs>
<linearGradient id="paint0_linear_1_6214" x1="25.4256" y1="0.00390625" x2="2.68177" y2="19.1319" gradientUnits="userSpaceOnUse">
<stop stop-color="#03D6FA"/>
<stop offset="1" stop-color="#3762EE"/>
</linearGradient>
<clipPath id="clip0_1_6214">
<rect width="25.4367" height="25.4367" fill="white"/>
</clipPath>
</defs>
</svg>
