<svg width="82" height="83" viewBox="0 0 82 83" fill="none" xmlns="http://www.w3.org/2000/svg">
<path d="M66.5206 76.1299H6.71589C4.37433 76.1299 2.4696 74.2248 2.4696 71.8833V26.9711C2.4696 24.6299 4.37463 22.7249 6.71589 22.7249H66.5209C68.8625 22.7249 70.7672 24.6299 70.7672 26.9711V71.8836C70.7669 74.2248 68.8622 76.1299 66.5206 76.1299ZM6.71589 22.9896C4.52063 22.9896 2.73439 24.7756 2.73439 26.9711V71.8836C2.73439 74.0791 4.52033 75.8651 6.71589 75.8651H66.5209C68.7162 75.8651 70.5024 74.0791 70.5024 71.8836V26.9711C70.5024 24.7759 68.7162 22.9896 66.5209 22.9896H6.71589Z" fill="#B3DCFF"/>
<path d="M73.555 23.1358V68.0479C73.555 70.3201 71.7132 72.1619 69.4412 72.1619H9.6365C7.36429 72.1619 5.52246 70.3201 5.52246 68.0479V23.1358C5.52246 20.8635 7.36429 19.0217 9.6365 19.0217H69.4412C71.7134 19.0217 73.555 20.8635 73.555 23.1358Z" fill="#E3F2FF"/>
<path d="M73.555 23.1358V24.2991H5.52246V23.1358C5.52246 20.8635 7.36429 19.0217 9.6365 19.0217H69.4412C71.7134 19.0217 73.555 20.8635 73.555 23.1358Z" fill="#4DA8F2"/>
<path d="M32.45 39.591H13.2509C12.3734 39.591 11.6619 38.8794 11.6619 38.002V32.9704C11.6619 32.0929 12.3731 31.3813 13.2509 31.3813H32.45C33.3275 31.3813 34.0391 32.0929 34.0391 32.9704V38.002C34.0391 38.8794 33.3275 39.591 32.45 39.591Z" fill="#B3DCFF"/>
<path d="M32.4506 50.6248H13.2514C12.3023 50.6248 11.5302 49.8526 11.5302 48.9035V43.8719C11.5302 42.9231 12.3023 42.1506 13.2514 42.1506H32.4506C33.3997 42.1506 34.1719 42.9231 34.1719 43.8719V48.9035C34.1719 49.8529 33.3997 50.6248 32.4506 50.6248ZM13.2514 42.4157C12.4483 42.4157 11.7949 43.0691 11.7949 43.8719V48.9035C11.7949 49.7066 12.4483 50.3603 13.2514 50.3603H32.4506C33.2537 50.3603 33.9071 49.7069 33.9071 48.9035V43.8719C33.9071 43.0691 33.2537 42.4157 32.4506 42.4157H13.2514Z" fill="#B3DCFF"/>
<path d="M56.8847 54.5078H39.4838C39.2553 54.5078 39.0701 54.3226 39.0701 54.0941V53.5973C39.0701 53.3688 39.2553 53.1836 39.4838 53.1836H56.8847C57.1132 53.1836 57.2984 53.3688 57.2984 53.5973V54.0941C57.2984 54.3226 57.1132 54.5078 56.8847 54.5078Z" fill="#B3DCFF"/>
<path d="M56.8848 59.3181H39.4839C39.2554 59.3181 39.0702 59.1332 39.0702 58.9047V58.4081C39.0702 58.1796 39.2554 57.9941 39.4839 57.9941H56.8848C57.1133 57.9941 57.2985 58.1796 57.2985 58.4081V58.9047C57.2985 59.1332 57.1133 59.3181 56.8848 59.3181Z" fill="#B3DCFF"/>
<path d="M65.2105 50.6242H41.3329C40.0124 50.6242 38.9384 49.5501 38.9384 48.2296V33.6428C38.9384 32.3227 40.0124 31.2483 41.3329 31.2483H65.2105C66.5306 31.2483 67.605 32.3224 67.605 33.6428V48.2296C67.605 49.5504 66.5306 50.6242 65.2105 50.6242ZM41.3329 31.5134C40.1584 31.5134 39.2034 32.4687 39.2034 33.6428V48.2296C39.2034 49.4041 40.1587 50.3594 41.3329 50.3594H65.2105C66.3846 50.3594 67.3399 49.4038 67.3399 48.2296V33.6428C67.3399 32.4687 66.3843 31.5134 65.2105 31.5134H41.3329Z" fill="#B3DCFF"/>
<path d="M64.1879 54.9267L62.6756 53.608C62.5515 53.5 62.5386 53.3119 62.6466 53.1881C62.7546 53.0641 62.943 53.0509 63.067 53.1592L64.1364 54.0913L65.6617 52.3902C65.7714 52.2679 65.9601 52.2574 66.0824 52.3674C66.2047 52.4771 66.215 52.6656 66.1052 52.7882L64.1879 54.9267Z" fill="#4DA8F2"/>
<path d="M64.1879 60.0345L62.6756 58.7161C62.5515 58.6079 62.5386 58.4194 62.6466 58.2954C62.7546 58.1713 62.943 58.1585 63.067 58.2664L64.1364 59.1989L65.6617 57.4978C65.7714 57.3752 65.9601 57.365 66.0824 57.4747C66.2047 57.5847 66.215 57.7728 66.1052 57.8954L64.1879 60.0345Z" fill="#4DA8F2"/>
<path d="M56.8847 64.4274H39.4838C39.2553 64.4274 39.0701 64.2422 39.0701 64.014V63.5172C39.0701 63.289 39.2553 63.1038 39.4838 63.1038H56.8847C57.1132 63.1038 57.2984 63.289 57.2984 63.5172V64.014C57.2984 64.2422 57.1132 64.4274 56.8847 64.4274Z" fill="#B3DCFF"/>
<path d="M64.1879 65.1433L62.6756 63.8246C62.5515 63.7166 62.5386 63.5282 62.6466 63.4045C62.7546 63.2804 62.943 63.2675 63.067 63.3755L64.1364 64.3083L65.6617 62.6069C65.7714 62.4846 65.9601 62.4743 66.0824 62.5843C66.2047 62.6941 66.215 62.8822 66.1052 63.0051L64.1879 65.1433Z" fill="#4DA8F2"/>
<path d="M18.3337 35.5153C18.3343 35.4753 18.3328 35.4361 18.3313 35.3963C18.3307 35.3828 18.331 35.3691 18.3304 35.3556C18.3176 35.116 18.2696 34.886 18.1909 34.6701C17.862 33.7648 16.9998 33.1132 15.9798 33.1001C15.4301 33.093 14.9218 33.2721 14.5146 33.5796C13.9455 34.0085 13.5742 34.6867 13.5645 35.4542C13.5511 36.5142 14.2313 37.4215 15.1843 37.744C15.4151 37.8221 15.6615 37.866 15.9184 37.8692C16.2101 37.873 16.4904 37.8241 16.7499 37.7317C17.1826 37.5775 17.558 37.3019 17.8348 36.9452C18.1052 36.5964 18.281 36.1707 18.3237 35.7055C18.3296 35.6423 18.3328 35.5791 18.3337 35.5153ZM14.1614 35.4615C14.1687 34.8904 14.4435 34.3851 14.8648 34.0632C15.1717 33.8286 15.5565 33.6914 15.9725 33.6966C16.7373 33.7066 17.3836 34.1952 17.6303 34.874L17.6306 34.8749C17.6891 35.0364 17.7251 35.2084 17.7347 35.3875C17.7368 35.427 17.7377 35.4671 17.7371 35.5074C17.735 35.6807 17.7067 35.8471 17.6587 36.0051C17.5946 36.2155 17.4942 36.4098 17.3629 36.5792C17.3146 36.6412 17.2622 36.6994 17.2066 36.7547C16.8781 37.0798 16.4248 37.2788 15.9263 37.2723C15.7943 37.2706 15.6662 37.2539 15.5427 37.2249C15.4859 37.2118 15.4301 37.1968 15.3756 37.1784C14.6614 36.937 14.1512 36.2565 14.1614 35.4615Z" fill="#E3F2FF"/>
<g opacity="0.78">
<path d="M79.4773 49.6655H55.5994C54.3501 49.6655 53.3378 48.6525 53.3378 47.4035V32.8167C53.3378 31.5673 54.3504 30.5547 55.5994 30.5547H79.477C80.7264 30.5547 81.7393 31.5673 81.7393 32.8167V47.4035C81.7393 48.6525 80.7264 49.6655 79.4773 49.6655Z" fill="#4DA8F2"/>
</g>
<path d="M64.889 40.9346H57.0535C56.5822 40.9346 56.2001 40.5525 56.2001 40.0814V33.6914C56.2001 33.22 56.5822 32.8379 57.0535 32.8379H64.889C65.3603 32.8379 65.7425 33.22 65.7425 33.6914V40.0814C65.7425 40.5525 65.3606 40.9346 64.889 40.9346Z" fill="#E3F2FF"/>
<path d="M79.1189 34.9975H67.8398C67.5636 34.9975 67.3397 34.7736 67.3397 34.4974V33.3376C67.3397 33.0617 67.5636 32.8379 67.8398 32.8379H79.1189C79.3948 32.8379 79.6187 33.0617 79.6187 33.3376V34.4974C79.6187 34.7736 79.3948 34.9975 79.1189 34.9975Z" fill="#E3F2FF"/>
<path d="M79.1192 38.3769H67.84C67.5638 38.3769 67.34 38.1531 67.34 37.8769V36.7171C67.34 36.4409 67.5638 36.217 67.84 36.217H79.1192C79.3951 36.217 79.6189 36.4409 79.6189 36.7171V37.8769C79.6189 38.1531 79.3951 38.3769 79.1192 38.3769Z" fill="#E3F2FF"/>
<path d="M79.1649 47.0525H74.8147C74.564 47.0525 74.3604 46.8491 74.3604 46.5981V46.3921C74.3604 46.1414 74.5637 45.9377 74.8147 45.9377H79.1649C79.4159 45.9377 79.6193 46.1411 79.6193 46.3921V46.5981C79.6193 46.8489 79.4162 47.0525 79.1649 47.0525Z" fill="#E3F2FF"/>
<g opacity="0.78">
<path d="M20.7882 51.548H1.58903C0.711567 51.548 0 50.8365 0 49.959V44.9277C0 44.0502 0.711567 43.3384 1.58903 43.3384H20.7882C21.6659 43.3384 22.3772 44.0502 22.3772 44.9277V49.959C22.3769 50.8365 21.6656 51.548 20.7882 51.548Z" fill="#4DA8F2"/>
</g>
<path d="M58.2312 0.462578L58.1709 0.204811C58.639 0.0953841 58.881 0.000877756 58.8836 0L58.9808 0.246358C58.9702 0.250161 58.718 0.348762 58.2312 0.462578Z" fill="#C2BEBC"/>
<path d="M12.12 57.281H10.0836V64.6784H12.12V57.281Z" fill="#78C2FF"/>
<path d="M15.0184 56.5354H12.9821V64.6792H15.0184V56.5354Z" fill="#78C2FF"/>
<path d="M17.9552 58.0828H15.9188V64.6768H17.9552V58.0828Z" fill="#78C2FF"/>
<path d="M20.8915 55.0291H18.8551V64.6791H20.8915V55.0291Z" fill="#78C2FF"/>
<path d="M23.974 55.9905H21.9376V64.6794H23.974V55.9905Z" fill="#78C2FF"/>
<path d="M27.0966 57.281H25.0602V64.6784H27.0966V57.281Z" fill="#78C2FF"/>
<path d="M29.994 56.5354H27.9576V64.6792H29.994V56.5354Z" fill="#78C2FF"/>
<path d="M32.9306 58.0828H30.8942V64.6768H32.9306V58.0828Z" fill="#78C2FF"/>
<path d="M6.94725 47.1831C6.94695 47.1717 6.94725 47.16 6.94666 47.1486C6.93379 46.9092 6.8858 46.679 6.8071 46.463C6.47823 45.5578 5.61598 44.9062 4.59603 44.893C4.04626 44.886 3.53804 45.0651 3.13077 45.3726C2.56169 45.8018 2.19039 46.4794 2.18074 47.2469C2.16728 48.3069 2.84754 49.2145 3.80049 49.5369C4.03134 49.6151 4.27799 49.6586 4.53459 49.6622C4.83624 49.666 5.12561 49.613 5.39245 49.5141C5.81406 49.3582 6.1798 49.0872 6.45073 48.7379C6.71932 48.3918 6.89458 47.9696 6.93876 47.5084C6.94491 47.4423 6.94871 47.3756 6.94958 47.3083C6.95017 47.2662 6.94871 47.2243 6.94725 47.1831ZM2.77732 47.2545C2.78463 46.6833 3.05937 46.1781 3.4807 45.8565C3.78762 45.6216 4.17237 45.4846 4.58842 45.4896C5.35324 45.4993 5.99956 45.9882 6.24621 46.6673L6.2468 46.6681C6.30531 46.8296 6.3413 47.002 6.35096 47.1807C6.35301 47.2205 6.35388 47.2603 6.3533 47.3007C6.35125 47.4742 6.32287 47.6407 6.27488 47.799C6.21081 48.0091 6.11045 48.203 5.97937 48.3722C5.93139 48.4345 5.87873 48.4927 5.82313 48.5477C5.49456 48.8728 5.04134 49.0717 4.54278 49.0656C4.41053 49.0638 4.28238 49.0471 4.15862 49.0182C4.10215 49.005 4.04626 48.9901 3.99214 48.972C3.27735 48.7297 2.76708 48.0497 2.77732 47.2545Z" fill="#E3F2FF"/>
<g opacity="0.74">
<path d="M59.5947 82.3327H43.6524C42.5294 82.3327 41.6189 81.4222 41.6189 80.2993V68.7234C41.6189 67.6005 42.5294 66.6899 43.6524 66.6899H59.5947C60.7177 66.6899 61.6282 67.6005 61.6282 68.7234V80.2993C61.6282 81.4222 60.7174 82.3327 59.5947 82.3327Z" fill="#4DA8F2"/>
</g>
<path d="M59.1902 80.4442H52.049C51.362 80.4442 50.8055 79.8877 50.8055 79.201V69.5325C50.8055 68.8456 51.362 68.2891 52.049 68.2891H59.1902C59.8771 68.2891 60.4336 68.8456 60.4336 69.5325V79.201C60.4336 79.8877 59.8769 80.4442 59.1902 80.4442Z" fill="#E3F2FF"/>
<path d="M48.0981 70.0218H44.4413C44.0203 70.0218 43.6794 69.6803 43.6794 69.2596V69.051C43.6794 68.6302 44.0206 68.2891 44.4413 68.2891H48.0981C48.5188 68.2891 48.86 68.6302 48.86 69.051V69.2596C48.86 69.6803 48.5188 70.0218 48.0981 70.0218Z" fill="#E3F2FF"/>
<path d="M48.0982 73.2567H44.4415C44.0204 73.2567 43.6796 72.9155 43.6796 72.4948V72.2859C43.6796 71.8648 44.0207 71.5237 44.4415 71.5237H48.0982C48.5189 71.5237 48.8601 71.8648 48.8601 72.2859V72.4948C48.8601 72.9155 48.5189 73.2567 48.0982 73.2567Z" fill="#E3F2FF"/>
</svg>
