<svg width="20" height="20" viewBox="0 0 20 20" fill="none" xmlns="http://www.w3.org/2000/svg">
<path d="M14.0792 7.25899C14.0851 7.25896 14.0912 7.25895 14.0972 7.25895C16.0992 7.25895 17.7222 8.88488 17.7222 10.8906C17.7222 12.7599 16.3125 14.2993 14.5 14.5001M14.0792 7.25899C14.0911 7.12607 14.0972 6.99147 14.0972 6.85543C14.0972 4.40401 12.1136 2.41675 9.66664 2.41675C7.34925 2.41675 5.44741 4.19918 5.25253 6.47024M14.0792 7.25899C13.9967 8.17454 13.6369 9.0099 13.0844 9.68004M5.25253 6.47024C3.20929 6.66503 1.61108 8.38906 1.61108 10.487C1.61108 12.4392 2.99484 14.0677 4.83331 14.4415M5.25253 6.47024C5.37968 6.45812 5.50855 6.45191 5.63886 6.45191C6.54577 6.45191 7.38268 6.7522 8.05593 7.25895" stroke="#3666EE" stroke-width="1.20833" stroke-linecap="round" stroke-linejoin="round"/>
<path d="M9.66672 16.9166V10.4722M9.66672 16.9166C9.10267 16.9166 8.04879 15.3101 7.65283 14.9027M9.66672 16.9166C10.2308 16.9166 11.2847 15.3101 11.6806 14.9027" stroke="#3666EE" stroke-width="1.20833" stroke-linecap="round" stroke-linejoin="round"/>
</svg>
