<svg width="354" height="296" viewBox="0 0 354 296" fill="none" xmlns="http://www.w3.org/2000/svg">
<g opacity="0.45">
<path d="M176.809 295.222C274.457 295.222 353.617 284.95 353.617 272.279C353.617 259.608 274.457 249.336 176.809 249.336C79.1599 249.336 0 259.608 0 272.279C0 284.95 79.1599 295.222 176.809 295.222Z" fill="#F5F5F5"/>
<path d="M319.592 211.772L142.291 185.624C136.98 184.841 133.309 179.9 134.092 174.588L153.044 46.0774C153.828 40.7659 158.768 37.0954 164.08 37.8785L341.381 64.0264C346.693 64.8095 350.363 69.7504 349.58 75.0619L330.628 203.573C329.845 208.884 324.904 212.555 319.592 211.772Z" fill="#F5F5F5"/>
<path d="M310.902 199.414L133.08 221.746C127.753 222.415 122.893 218.639 122.224 213.312L106.037 84.4228C105.368 79.0956 109.144 74.2348 114.471 73.5663L292.293 51.2348C297.62 50.5655 302.481 54.3416 303.15 59.6688L319.336 188.558C320.006 193.884 316.229 198.745 310.902 199.414Z" fill="#F5F5F5"/>
<path d="M136.786 211.743C135.976 211.845 135.238 211.27 135.137 210.461L120.164 91.2391C120.062 90.4298 120.636 89.6909 121.446 89.5891C122.255 89.4873 122.994 90.0615 123.096 90.8707L138.068 210.093C138.168 210.903 137.595 211.641 136.786 211.743Z" fill="#D6D6D6"/>
<path d="M155.241 209.017C154.432 209.119 153.693 208.544 153.591 207.735L138.618 88.513C138.517 87.7037 139.091 86.9648 139.9 86.8637C140.709 86.7619 141.448 87.3361 141.549 88.1454L156.522 207.368C156.624 208.177 156.05 208.915 155.241 209.017Z" fill="#D6D6D6"/>
<path d="M173.696 206.289C172.887 206.391 172.148 205.817 172.046 205.007L157.074 85.7852C156.972 84.9759 157.546 84.237 158.355 84.1352C159.165 84.0334 159.904 84.6076 160.005 85.4169L174.977 204.639C175.08 205.448 174.505 206.187 173.696 206.289Z" fill="#D6D6D6"/>
<path d="M192.151 203.562C191.342 203.664 190.603 203.09 190.501 202.281L175.529 83.0584C175.427 82.2491 176.001 81.5102 176.81 81.4084C177.62 81.3066 178.359 81.8808 178.46 82.6901L193.433 201.912C193.535 202.722 192.961 203.46 192.151 203.562Z" fill="#D6D6D6"/>
<path d="M210.607 200.836C209.798 200.938 209.059 200.363 208.958 199.554L193.985 80.3321C193.883 79.5228 194.457 78.7839 195.267 78.6828C196.076 78.581 196.815 79.1552 196.916 79.9645L211.888 199.187C211.99 199.996 211.416 200.734 210.607 200.836Z" fill="#D6D6D6"/>
<path d="M229.062 198.108C228.253 198.21 227.514 197.636 227.413 196.827L212.44 77.6045C212.339 76.7953 212.913 76.0564 213.722 75.9546C214.531 75.8528 215.27 76.4269 215.371 77.2362L230.344 196.458C230.445 197.268 229.871 198.007 229.062 198.108Z" fill="#D6D6D6"/>
<path d="M247.517 195.383C246.708 195.485 245.969 194.911 245.868 194.101L230.895 74.8792C230.794 74.0699 231.368 73.331 232.177 73.2292C232.986 73.1274 233.725 73.7016 233.826 74.5109L248.799 193.733C248.901 194.543 248.326 195.281 247.517 195.383Z" fill="#D6D6D6"/>
<path d="M265.972 192.655C265.163 192.757 264.424 192.183 264.323 191.374L249.35 72.1514C249.249 71.3421 249.823 70.6032 250.632 70.5022C251.441 70.4004 252.18 70.9746 252.281 71.7838L267.254 191.006C267.355 191.815 266.781 192.553 265.972 192.655Z" fill="#D6D6D6"/>
<path d="M284.427 189.928C283.618 190.03 282.879 189.456 282.777 188.647L267.805 69.4246C267.703 68.6153 268.277 67.8764 269.086 67.7754C269.896 67.6736 270.634 68.2478 270.736 69.057L285.708 188.279C285.811 189.088 285.237 189.827 284.427 189.928Z" fill="#D6D6D6"/>
<path d="M302.883 187.202C302.074 187.304 301.335 186.73 301.234 185.92L286.261 66.6983C286.16 65.889 286.734 65.1501 287.543 65.0483C288.352 64.9465 289.091 65.5207 289.192 66.33L304.165 185.552C304.266 186.362 303.692 187.1 302.883 187.202Z" fill="#D6D6D6"/>
<path d="M149.428 69.1759L289.986 50.8308C297.06 49.9078 303.514 54.9692 304.304 62.0587L311.023 122.361" stroke="#262626" stroke-width="0.4147" stroke-miterlimit="10" stroke-linecap="round" stroke-linejoin="round"/>
<path d="M335.012 268.251L156.252 258.962C150.831 258.68 146.665 254.057 146.946 248.635L153.85 115.781C154.131 110.359 158.755 106.193 164.176 106.474L342.937 115.764C348.358 116.046 352.524 120.669 352.243 126.091L345.338 258.945C345.058 264.367 340.434 268.533 335.012 268.251Z" fill="#F5F5F5"/>
<path d="M335.012 268.251L156.252 258.962C150.831 258.68 146.665 254.057 146.946 248.635L153.85 115.781C154.131 110.359 158.755 106.193 164.176 106.474L342.937 115.764C348.358 116.046 352.524 120.669 352.243 126.091L345.338 258.945C345.058 264.367 340.434 268.533 335.012 268.251Z" stroke="#262626" stroke-width="0.4147" stroke-miterlimit="10" stroke-linecap="round" stroke-linejoin="round"/>
<path d="M185.675 122.362L165.952 96.8514C163.825 94.1009 160.563 92.4495 157.254 92.4495H106.304C100.832 92.4495 96.8616 96.8851 97.4343 102.357L99.5297 122.362L99.6083 123.111L114.102 261.472C114.675 266.944 119.575 271.38 125.047 271.38H327.702C333.174 271.38 337.145 266.944 336.572 261.472L323.038 132.27C322.465 126.798 317.565 122.362 312.093 122.362H185.675Z" fill="#3762EE"/>
<path d="M210.959 215.204C209.84 210.929 209.265 207.486 209.233 204.878C209.202 202.27 209.843 199.878 211.159 197.704C211.904 196.399 212.841 195.277 213.973 194.334C215.102 193.393 216.109 192.396 216.994 191.345C217.878 190.295 218.547 189.116 219.003 187.812C219.459 186.508 219.412 184.806 218.862 182.704C217.932 179.154 216.304 176.671 213.977 175.258C211.65 173.844 209.146 173.138 206.465 173.138C202.624 173.138 200.259 174.208 199.37 176.345C198.48 178.483 198.328 181.364 198.916 184.987H184.894C183.964 181.437 183.698 178.212 184.1 175.313C184.499 172.415 185.503 169.95 187.11 167.921C188.716 165.893 190.88 164.333 193.603 163.247C196.325 162.16 199.498 161.616 203.122 161.616C210.948 161.616 217.543 163.211 222.908 166.399C228.271 169.589 231.894 174.769 233.773 181.944C234.381 184.264 234.675 186.292 234.661 188.031C234.644 189.77 234.35 191.347 233.78 192.759C233.207 194.172 232.393 195.495 231.34 196.727C230.285 197.96 229.06 199.227 227.662 200.531C226.39 201.764 225.403 202.906 224.7 203.956C223.997 205.007 223.542 206.112 223.34 207.271C223.137 208.431 223.128 209.646 223.316 210.913C223.502 212.182 223.806 213.614 224.223 215.206H210.959V215.204ZM216.019 236.184L212.291 221.944H226.964L230.693 236.184H216.019Z" fill="white"/>
<path d="M99.5295 122.362L99.6081 123.111" stroke="#262626" stroke-width="0.4657" stroke-miterlimit="10" stroke-linecap="round" stroke-linejoin="round"/>
<path d="M336.572 261.472L323.038 132.27C322.465 126.798 317.565 122.362 312.093 122.362H185.675L165.952 96.8514C163.825 94.1009 160.563 92.4495 157.254 92.4495H106.304" stroke="#262626" stroke-width="0.4657" stroke-miterlimit="10" stroke-linecap="round" stroke-linejoin="round"/>
<path d="M86.0178 145.636V151.385C86.0178 151.385 95.4018 190.752 97.233 196.017C99.0641 201.281 90.824 251.978 90.824 251.978H63.3592L66.8448 195.559L36.938 248.262L12.4011 233.782C12.4011 233.782 36.2658 188.885 36.938 180.778C37.6103 172.671 35.2065 135.327 35.2065 135.327L86.0178 145.636Z" fill="#3897E9"/>
<path d="M49.9738 138.323C49.9738 138.323 52.7557 177.714 50.7816 184.637C48.8075 191.561 25.5649 241.551 25.5649 241.551" stroke="#262626" stroke-width="0.4147" stroke-miterlimit="10" stroke-linecap="round" stroke-linejoin="round"/>
<path d="M66.8263 194.705C65.6704 213.796 64.5153 232.886 63.3594 251.977H75.4152L71.0957 184.637C70.8479 186.315 70.3156 188.586 69.1066 191.046C68.3796 192.525 67.5696 193.741 66.8263 194.705Z" fill="#1775AF"/>
<path d="M62.401 161.971L57.9594 158.729H60.1177C61.4689 158.729 62.4287 157.413 62.0154 156.126C61.9166 155.818 61.6291 155.609 61.305 155.604C59.9268 155.58 58.7754 155.517 57.9227 155.457C55.8947 155.315 54.8623 155.238 53.9819 154.924C52.5371 154.41 52.341 153.895 50.8632 153.379C49.9686 153.067 49.1473 152.945 48.4751 152.903C45.1901 150.088 42.5138 146.943 40.598 143.492L36.4956 158.558C36.3893 158.535 36.6296 159.94 36.5615 159.994C38.8478 161.103 40.7223 161.68 42.7601 162.377C42.9667 163.174 43.3013 164.065 43.8546 164.966C44.7125 166.362 45.6737 167.098 47.4884 168.485C47.8492 168.762 47.5722 168.533 52.0617 170.998C52.4817 171.228 53.273 171.663 53.8397 171.347C54.3106 171.083 54.4835 170.379 54.4977 170.316C54.5748 169.986 54.5449 169.703 54.512 169.53C54.6153 169.615 54.7732 169.729 54.9836 169.828C55.5518 170.092 56.5999 170.277 57.2302 169.658C57.7864 169.111 57.6884 168.257 57.6659 168.058C57.6262 167.707 57.5095 167.433 57.4166 167.255L58.2147 167.574C58.7836 167.802 59.4312 167.712 59.917 167.338C60.8296 166.636 60.8184 165.256 59.8938 164.57L59.6191 164.366L61.1485 164.717C61.7339 164.852 62.3441 164.634 62.7116 164.16C63.2424 163.472 63.1024 162.483 62.401 161.971Z" fill="#1775AF"/>
<path d="M84.3777 80.4884C84.3777 80.4884 105.517 122.251 107.894 127.06C110.272 131.869 127.638 151.34 127.638 151.34L116.667 158.554C111.985 154.594 107.304 150.633 102.622 146.673C99.5523 143.923 96.4822 140.767 93.5461 137.142C76.8031 116.472 74.0429 92.4604 73.7292 79.1641L84.3777 80.4884Z" fill="#F7A99C"/>
<path d="M101.108 113.575C100.719 116.405 99.8173 120.514 97.5587 125.001C95.6834 128.726 92.8573 132.062 91.0958 133.959C90.7896 133.674 89.7625 132.653 89.5334 130.966C89.3365 129.515 89.8426 128.403 90.0485 128.005L98.8463 108.479L101.108 113.575Z" fill="#FF7769"/>
<path d="M64.3646 51.3655C62.9632 52.8156 61.6568 53.6361 60.6986 54.1227C58.1001 55.4417 56.5377 57.4503 55.9164 60.3565C55.4125 62.7109 55.5974 65.1956 56.3783 67.4691C56.775 68.6235 57.326 69.7262 58.0207 70.7309C58.6982 71.7116 59.3937 72.4827 59.0478 73.7853C58.5845 75.5333 56.2278 76.0843 55.0367 77.2432C53.5657 78.6745 52.7811 80.7527 52.7063 82.783C52.6606 84.0227 52.8575 85.2999 53.4811 86.3726C54.2537 87.7022 55.5705 88.5519 56.8671 89.308C58.2618 90.121 59.6161 91.0051 61.0474 91.7523" stroke="#262626" stroke-width="0.4147" stroke-miterlimit="10" stroke-linecap="round" stroke-linejoin="round"/>
<path d="M87.5354 52.4578C88.8934 53.8277 90.3293 55.3579 90.5172 57.2774C90.5943 58.0627 90.4505 58.8533 90.2469 59.6161C89.8749 61.0063 89.3007 62.3366 88.9496 63.732C88.6778 64.8108 88.543 65.9525 88.8051 67.0335C89.0424 68.0134 89.5941 68.8908 90.2327 69.6709C92.0496 71.8928 94.1383 73.4335 94.5612 76.4602C94.7918 78.1079 94.6002 79.7863 94.3022 81.4228C94.1173 82.4394 93.8748 83.4845 93.2467 84.305C92.09 85.8172 89.9108 86.3353 88.1395 86.6946" stroke="#262626" stroke-width="0.4147" stroke-miterlimit="10" stroke-linecap="round" stroke-linejoin="round"/>
<path d="M74.1827 49.1515C72.7716 49.1432 71.5431 49.1837 71.0894 49.2256C65.2112 49.7661 59.7111 53.0728 57.975 58.9472C57.1792 61.64 57.326 63.9196 57.5835 65.1803C58.2483 68.4338 60.4358 69.6578 59.878 72.0339C59.7642 72.5183 59.6175 72.7234 58.4991 74.3352C55.9478 78.0117 54.6691 79.8563 54.5508 80.1715C53.4406 83.1338 54.5845 86.7107 56.3251 88.8473C57.4158 90.1866 58.9602 91.3447 61.0594 92.0731C64.7239 93.345 75.8335 97.7776 85.9646 91.7295C88.4732 90.2322 92.5952 87.7715 93.6896 83.1465C95.0379 77.4487 90.9961 71.828 90.371 70.9589C88.8835 68.8904 88.5578 69.377 87.7388 67.9262C86.0312 64.9025 86.9648 61.6236 87.8414 58.5085C88.6941 55.4788 88.3752 53.8176 87.8354 52.8759C86.425 50.4151 82.6137 49.8851 79.5421 49.4577C77.4647 49.1702 75.0586 49.1567 74.1827 49.1515Z" fill="#262626"/>
<path d="M76.9856 79.7664C84.4696 82.4247 88.8842 86.4456 91.0867 88.812C94.9458 92.9586 97.3077 97.7124 99.0685 101.257C100.23 103.595 101.073 105.62 101.643 107.093L89.3139 133.958L76.9856 79.7664Z" fill="#FDB6D6"/>
<path d="M66.5035 79.6189H76.985C76.985 79.6189 90.9176 89.8414 93.9623 98.7672C97.0077 107.694 85.9707 147.53 85.9707 147.53C78.4298 147.728 69.629 147.424 59.9074 146.071C46.525 144.207 35.1893 140.883 26.2844 137.562C28.2241 128.422 30.2596 120.751 31.9493 114.903C36.7105 98.4236 39.6182 93.3157 43.794 89.1541C47.6674 85.295 51.5288 83.3485 52.7064 82.7833C58.3428 80.0756 63.5232 79.6421 66.5035 79.6189Z" fill="#FDB6D6"/>
<path d="M85.9655 91.7297C85.9655 91.7297 86.4588 112.884 84.5132 120.551C82.5675 128.218 77.5996 147.53 77.5996 147.53H85.9722C85.9722 147.53 90.5209 130.45 90.8645 126.158C91.2081 121.867 91.6775 114.486 91.0995 111.31C90.5216 108.134 89.3388 101.388 88.5572 98.6246C87.7742 95.8606 85.9655 91.7297 85.9655 91.7297Z" fill="#FF97CB"/>
<path d="M49.9738 117.879C48.7985 118.551 44.8375 121.009 43.1426 125.987C40.4775 133.816 46.236 143.236 46.5646 143.626L28.7234 139.204C28.7234 139.204 29.1808 126.502 30.6114 121.809C32.042 117.117 38.9661 109.583 38.9661 109.583L49.9738 117.879Z" fill="#FF97CB"/>
<path d="M71.7664 84.8412C68.8707 84.8524 66.5148 82.5137 66.5043 79.6188L66.4617 68.337L76.9469 68.2974L76.9896 79.5791C77.0001 82.4741 74.6613 84.83 71.7664 84.8412Z" fill="#F7A99C"/>
<path d="M76.9766 76.4214L70.1484 72.9133C70.2173 73.5047 70.6058 76.2739 73.0411 78.1866C74.596 79.4076 76.231 79.6869 76.9856 79.7662L76.9766 76.4214Z" fill="#FF7769"/>
<path d="M66.2063 64.8413C66.1733 64.6707 65.7242 64.4131 65.5857 64.3255C65.3528 64.1766 65.1006 64.0575 64.837 63.9729C64.3257 63.8082 63.7635 63.7701 63.238 63.8906C62.1929 64.1302 61.2661 65.0083 61.0917 66.0841C60.9906 66.7092 61.1351 67.3552 61.4031 67.9287C61.8059 68.7911 62.4886 69.5158 63.3128 69.9911C63.9963 70.3849 64.7742 70.6072 65.5602 70.6544C65.7174 70.6641 67.3292 70.6267 67.3172 70.5646C66.9474 68.6563 66.5768 66.7488 66.2063 64.8413Z" fill="#F7A99C"/>
<path d="M64.7697 64.9518C64.894 65.794 65.6336 70.2333 69.6357 73.37C70.3731 73.948 75.2736 77.7892 79.7579 75.9146C85.5201 73.5055 84.8912 64.0414 84.8508 63.5286C84.7138 61.7956 84.3088 56.6922 80.0828 53.9694C76.6331 51.7475 72.896 52.5643 72.366 52.6893C71.8075 52.8203 68.2493 53.7187 66.0715 57.2072C64.0944 60.3732 64.5661 63.5743 64.7697 64.9518Z" fill="#F7A99C"/>
<path d="M81.58 63.5345C81.6728 64.2734 82.2425 64.8102 82.8527 64.7338C83.4628 64.6575 83.882 63.9965 83.7892 63.2576C83.6964 62.5187 83.1267 61.9819 82.5165 62.0583C81.9064 62.1346 81.4872 62.7957 81.58 63.5345Z" fill="#262626"/>
<path d="M74.9218 64.3707C75.0146 65.1096 75.5843 65.6464 76.1945 65.57C76.8046 65.4937 77.2238 64.8326 77.131 64.0937C77.0382 63.3548 76.4685 62.8181 75.8583 62.8944C75.2482 62.9708 74.829 63.6318 74.9218 64.3707Z" fill="#262626"/>
<path d="M79.5701 64.6404L80.5912 66.0193C80.7791 66.2731 80.7087 66.6325 80.4392 66.7964L79.502 67.3669" stroke="#262626" stroke-width="0.733" stroke-miterlimit="10" stroke-linecap="round" stroke-linejoin="round"/>
<path d="M72.6885 67.8511C72.7925 68.6799 73.5494 69.2683 74.3781 69.1635C75.2068 69.0587 75.7952 68.3026 75.6904 67.4738C75.5864 66.6451 74.8295 66.0567 74.0008 66.1615C73.1721 66.2656 72.5844 67.0217 72.6885 67.8511Z" fill="#FF7769"/>
<path d="M65.5034 68.6333C65.5087 68.4671 65.5229 67.3412 64.6193 66.5289C63.9118 65.8926 63.0884 65.8507 62.8638 65.8469" stroke="#262626" stroke-width="0.733" stroke-miterlimit="10" stroke-linecap="round" stroke-linejoin="round"/>
<path d="M64.707 66.7508C64.6568 66.7434 64.0512 66.6588 63.6282 67.1169C63.2801 67.4935 63.3123 67.9591 63.319 68.0362" stroke="#262626" stroke-width="0.733" stroke-miterlimit="10" stroke-linecap="round" stroke-linejoin="round"/>
<path d="M64.6373 63.9176C64.6373 63.9176 65.3821 63.9835 65.9436 64.5412C66.5051 65.0982 66.7042 66.0527 66.7042 66.0527C68.1393 65.8783 71.4265 65.2726 74.4083 62.6846C76.0246 61.2817 77.0113 59.765 77.593 58.6713C78.1365 59.1601 79.064 59.8945 80.3763 60.4605C82.0884 61.1986 84.2273 61.552 84.511 60.977C84.5634 60.8707 84.5058 60.5623 84.389 59.9462C84.347 59.7231 84.3029 59.3929 84.1943 59.077C83.9825 58.4587 83.707 57.862 83.3783 57.2968C82.7195 56.1664 81.8429 55.1625 80.8113 54.3577C80.1413 53.8352 79.4046 53.3965 78.6216 53.0633C76.1361 52.0063 72.685 52.0055 69.7144 53.5896C69.7144 53.5896 66.398 55.3586 64.936 58.8202C64.4336 60.0098 64.3071 61.1994 64.2757 61.6119C64.2128 62.4286 64.3049 62.9624 64.4292 63.3726C64.4995 63.6047 64.5781 63.7904 64.6373 63.9176Z" fill="#262626"/>
<path d="M84.0656 65.4591C84.3524 65.4231 84.6286 65.4748 84.8742 65.5856C84.845 66.3978 84.7671 67.383 84.5882 68.4281C84.5395 68.4393 84.4931 68.4551 84.443 68.4618C83.6142 68.5659 82.8574 67.9782 82.7533 67.1495C82.6485 66.3192 83.2362 65.5631 84.0656 65.4591Z" fill="#FF7769"/>
<path d="M80.0985 69.4143L77.3511 70.5357" stroke="#262626" stroke-width="0.733" stroke-miterlimit="10" stroke-linecap="round" stroke-linejoin="round"/>
<path d="M86.3406 151.674L41.6746 163.553C38.2849 164.455 36.2673 167.933 37.1687 171.324C38.07 174.714 41.5496 176.731 44.9394 175.829L89.1734 164.065L86.3406 151.674Z" fill="#1775AF"/>
<path d="M37.1692 169.826C36.2679 166.436 38.2847 162.957 41.6744 162.055L129.28 138.756L132.545 151.032L44.9392 174.332C41.5494 175.233 38.0706 173.216 37.1692 169.826Z" fill="#4450E4"/>
<path d="M62.401 161.972L57.9594 158.73H60.1177C61.4689 158.73 62.4287 157.414 62.0154 156.127C61.9166 155.819 61.6291 155.61 61.305 155.605C59.9268 155.581 58.7754 155.518 57.9227 155.458C55.8947 155.316 54.8623 155.239 53.9819 154.925C52.5371 154.411 52.341 153.895 50.8632 153.38C49.9686 153.068 49.1473 152.946 48.4751 152.904C48.0424 152.534 47.6224 152.156 47.2114 151.775L41.6409 161.999C42.0107 162.124 42.3828 162.249 42.7601 162.378C42.9667 163.175 43.3013 164.066 43.8546 164.967C44.7125 166.363 45.6737 167.099 47.4884 168.486C47.8492 168.762 47.5722 168.534 52.0617 170.999C52.4817 171.229 53.273 171.664 53.8397 171.347C54.3106 171.084 54.4835 170.38 54.4977 170.317C54.5748 169.987 54.5449 169.704 54.512 169.531C54.6153 169.616 54.7732 169.73 54.9836 169.828C55.5518 170.093 56.5999 170.278 57.2302 169.659C57.7864 169.112 57.6884 168.258 57.6659 168.059C57.6262 167.708 57.5095 167.434 57.4166 167.256L58.2147 167.575C58.7836 167.803 59.4312 167.713 59.917 167.339C60.8296 166.637 60.8184 165.257 59.8938 164.571L59.6191 164.366L61.1485 164.718C61.7339 164.853 62.3441 164.635 62.7116 164.161C63.2424 163.473 63.1024 162.484 62.401 161.972Z" fill="#3041BF"/>
<path d="M50.6601 86.6956C31.0491 95.0929 17.6847 110.672 17.7019 126.578C17.7124 136.44 22.8674 145.201 24.5683 148.092C31.148 159.275 44.1463 160.651 48.8073 163.238L54.112 155.645C42.6319 148.307 35.5753 138.057 37.6138 125.205C40.2175 108.792 54.7798 101.393 56.1715 100.715L50.6601 86.6956Z" fill="#F7A99C"/>
<path d="M29.1238 101.247L43.6718 111.176L41.0359 115.219C38.7841 114.522 35.6346 113.273 32.3279 110.968C29.3783 108.912 27.2815 106.699 25.8845 104.977C26.9648 103.733 28.0443 102.491 29.1238 101.247Z" fill="#FF7769"/>
<path d="M26.2852 100.026L49.9739 117.878C55.7173 106.076 60.1731 97.4275 63.363 91.3854C64.7532 88.7517 68.292 82.0897 66.1951 79.9704C65.6583 79.4276 64.0345 79.3228 60.7877 79.1117C58.2057 78.9448 56.6726 78.8534 54.6079 79.1117C54.6079 79.1117 52.1636 79.4179 49.5157 80.3417C45.5128 81.7394 36.438 88.7405 26.2852 100.026Z" fill="#FDB6D6"/>
<path d="M68.8594 251.978V270.194H98.0669L97.3033 264.953C97.3033 264.953 88.1447 259.813 86.7193 258.643C85.2947 257.473 83.7682 255.183 83.4628 254.471C83.1573 253.759 83.4628 251.978 83.4628 251.978H68.8594Z" fill="#F7A99C"/>
<path d="M67.3838 258.846C67.7401 258.748 68.2784 258.656 68.8593 258.821C70.3528 259.245 70.7451 260.975 71.3912 261.899L88.1446 262.09C88.1095 261.241 88.0743 260.391 88.0398 259.543C88.912 259.26 89.7834 258.977 90.6555 258.694C92.4822 260.731 94.2586 261.914 95.6017 262.629C97.6634 263.727 100.337 264.595 101.425 266.453C101.953 267.354 101.98 268.271 101.983 268.44C101.991 268.912 102.002 269.574 101.527 270.015C101.174 270.343 100.721 270.39 100.51 270.397C89.6965 270.329 78.8842 270.261 68.071 270.193C67.6915 270.193 67.3838 269.886 67.3838 269.506V258.846Z" fill="#FFC001"/>
<path d="M100.547 272.279H68.6731C67.9612 272.279 67.3848 271.702 67.3848 270.991V269.562H101.835V270.991C101.835 271.703 101.258 272.279 100.547 272.279Z" fill="#5D1113"/>
<path d="M68.8594 251.978H83.4635L83.3355 253.797H68.8594V251.978Z" fill="#FF7769"/>
<path d="M17.3108 236.438L7.8811 252.024L32.8702 267.143L34.9304 262.263C34.9304 262.263 29.7544 253.125 29.1413 251.386C28.5282 249.647 28.4076 246.898 28.5147 246.13C28.6225 245.362 29.8053 243.997 29.8053 243.997L17.3108 236.438Z" fill="#F7A99C"/>
<path d="M12.4919 241.551C12.8483 241.651 13.3566 241.851 13.7676 242.293C14.8261 243.429 14.2662 245.113 14.3395 246.237L28.5746 255.073C28.9841 254.329 29.3936 253.584 29.8039 252.84C30.6962 253.049 31.5886 253.258 32.4809 253.468C32.9892 256.157 33.8973 258.088 34.6751 259.395C35.8707 261.402 37.7086 263.528 37.6779 265.682C37.6629 266.727 37.2115 267.525 37.1269 267.671C36.8896 268.079 36.5564 268.651 35.9216 268.782C35.4492 268.88 35.0382 268.686 34.8533 268.582C25.637 262.926 16.4214 257.271 7.20513 251.616C6.88023 251.42 6.77692 250.997 6.97306 250.673L12.4919 241.551Z" fill="#FFC001"/>
<path d="M33.9105 270.211L6.64037 253.712C6.03174 253.343 5.83635 252.551 6.20467 251.942L6.94431 250.719L36.4199 268.552L35.6802 269.776C35.3119 270.384 34.5199 270.58 33.9105 270.211Z" fill="#5D1113"/>
<path d="M17.3107 236.438L29.8052 243.998L28.7542 245.488L16.3682 237.994L17.3107 236.438Z" fill="#FF7769"/>
<path d="M61.0602 92.0735C60.7645 95.4348 59.953 100.33 57.6203 105.789C55.2547 111.324 52.2242 115.335 49.9746 117.88C42.0781 111.929 34.1816 105.978 26.2859 100.028" stroke="#262626" stroke-width="0.4147" stroke-miterlimit="10" stroke-linecap="round" stroke-linejoin="round"/>
<path d="M85.886 91.0251C87.0958 93.9163 88.2209 97.1534 89.1238 100.724C92.4147 113.744 91.2461 125.258 89.6418 133.019" stroke="#262626" stroke-width="0.4147" stroke-miterlimit="10" stroke-linecap="round" stroke-linejoin="round"/>
<path d="M54.1124 82.1526C54.1124 82.1526 48.2926 82.5568 44.3443 85.7325C40.3961 88.9082 34.9888 94.4016 34.9888 94.4016" stroke="white" stroke-width="0.4147" stroke-miterlimit="10" stroke-linecap="round" stroke-linejoin="round"/>
<path d="M42.7565 112.44C40.569 115.595 39.3809 118.53 38.7154 120.591C37.6718 123.828 37.43 126.426 37.3656 127.235C37.2032 129.278 36.9704 132.212 37.975 135.581C38.3957 136.994 39.4311 139.813 39.4311 139.813" stroke="#262626" stroke-width="0.4147" stroke-miterlimit="10" stroke-linecap="round" stroke-linejoin="round"/>
<path d="M42.4099 159.021C42.4795 160.052 42.7423 161.771 43.8113 163.512C44.6693 164.909 45.6305 165.644 47.4452 167.032C47.8067 167.308 47.529 167.08 52.0185 169.544C52.4385 169.775 53.2298 170.21 53.7965 169.893C54.2674 169.629 54.4403 168.926 54.4545 168.863C54.5316 168.533 54.5017 168.25 54.4688 168.076C54.5721 168.161 54.73 168.276 54.9404 168.374C55.5086 168.638 56.5574 168.824 57.187 168.205C57.7432 167.657 57.6459 166.803 57.6227 166.604C57.5823 166.254 57.4662 165.979 57.3727 165.802L58.1707 166.121C58.7404 166.348 59.3872 166.259 59.8738 165.885C60.7864 165.183 60.7752 163.803 59.8506 163.116L59.5759 162.912L61.1053 163.264C61.6907 163.399 62.3001 163.181 62.6677 162.706C63.1992 162.02 63.0592 161.031 62.3585 160.519L57.9169 157.276H60.0759C61.4272 157.276 62.3869 155.96 61.9737 154.673C61.8749 154.365 61.5874 154.156 61.2633 154.151C59.8843 154.127 58.7337 154.064 57.881 154.004C55.853 153.862 54.8206 153.785 53.9402 153.471C52.4954 152.957 52.2992 152.442 50.8222 151.926C49.5787 151.492 48.4655 151.421 47.7154 151.429L42.4099 159.021Z" fill="#F7A99C"/>
<path d="M54.4686 168.075C53.7178 167.202 52.7565 166.218 51.5542 165.239C50.5316 164.407 49.5449 163.752 48.6646 163.237" stroke="#262626" stroke-width="0.4147" stroke-miterlimit="10" stroke-linecap="round" stroke-linejoin="round"/>
<path d="M57.3726 165.8C56.6255 164.917 55.6695 163.919 54.4725 162.922C53.1481 161.82 51.871 161.004 50.7817 160.404" stroke="#262626" stroke-width="0.4147" stroke-miterlimit="10" stroke-linecap="round" stroke-linejoin="round"/>
<path d="M59.5756 162.911C58.6166 161.958 57.3874 160.892 55.8565 159.878C54.854 159.214 53.8921 158.683 53.0132 158.258" stroke="#262626" stroke-width="0.4147" stroke-miterlimit="10" stroke-linecap="round" stroke-linejoin="round"/>
<path d="M50.7817 223.865L68.891 190.951C70.4631 188.094 71.2199 184.859 71.0777 181.601L70.4661 167.543" stroke="#262626" stroke-width="0.4147" stroke-miterlimit="10" stroke-linecap="round" stroke-linejoin="round"/>
<path d="M116.344 158.755C115.351 159.328 114.082 158.988 113.508 157.995L110.365 152.551C109.792 151.558 110.133 150.289 111.125 149.715C112.118 149.142 113.388 149.482 113.961 150.475L117.105 155.919C117.676 156.912 117.337 158.181 116.344 158.755Z" fill="#F7A99C"/>
<path d="M119.54 157.71C118.547 158.283 117.278 157.943 116.704 156.95L112.846 150.267C112.272 149.274 112.613 148.005 113.605 147.431C114.598 146.858 115.868 147.199 116.441 148.191L120.3 154.874C120.873 155.867 120.533 157.136 119.54 157.71Z" fill="#F7A99C"/>
<path d="M122.682 155.97C121.69 156.544 120.42 156.203 119.847 155.211L115.799 148.2C115.225 147.207 115.566 145.937 116.559 145.364C117.551 144.791 118.821 145.131 119.394 146.124L123.442 153.135C124.016 154.128 123.675 155.398 122.682 155.97Z" fill="#F7A99C"/>
<path d="M124.697 154.847C123.613 155.22 122.432 154.645 122.058 153.561L119.421 145.907C119.047 144.823 119.623 143.641 120.707 143.268C121.791 142.894 122.972 143.47 123.346 144.554L125.983 152.208C126.357 153.292 125.781 154.473 124.697 154.847Z" fill="#F7A99C"/>
<path d="M113.38 147.586C112.904 148.081 112.735 148.529 112.665 148.796C112.326 150.073 113.328 151.598 115.345 154.597C115.804 155.279 116.485 156.251 116.485 156.251V156.25" stroke="#262626" stroke-width="0.4147" stroke-miterlimit="10" stroke-linecap="round" stroke-linejoin="round"/>
<path d="M116.559 145.363C116.222 145.69 115.831 146.181 115.691 146.843C115.509 147.703 115.866 148.317 117.826 151.711C118.475 152.833 119.384 154.407 119.384 154.407" stroke="#262626" stroke-width="0.4147" stroke-miterlimit="10" stroke-linecap="round" stroke-linejoin="round"/>
<path d="M120.135 143.671C119.914 143.88 119.583 144.257 119.472 144.796C119.365 145.317 119.511 145.75 119.575 145.939C119.91 146.933 120.661 149.201 121.698 152.209" stroke="#262626" stroke-width="0.4147" stroke-miterlimit="10" stroke-linecap="round" stroke-linejoin="round"/>
<path opacity="0.5" d="M187.363 168.619C209.683 159.743 220.582 134.454 211.706 112.134C202.83 89.8136 177.541 78.9148 155.221 87.7905C132.901 96.6662 122.002 121.955 130.878 144.276C139.753 166.596 165.042 177.495 187.363 168.619Z" fill="#CDEBF5"/>
<path d="M171.295 79.623C144.458 79.623 122.702 101.379 122.702 128.216C122.702 155.054 144.458 176.809 171.295 176.809C198.133 176.809 219.889 155.054 219.889 128.216C219.889 101.379 198.133 79.623 171.295 79.623ZM171.295 168.919C148.816 168.919 130.593 150.696 130.593 128.216C130.593 105.737 148.816 87.5136 171.295 87.5136C193.775 87.5136 211.998 105.737 211.998 128.216C211.998 150.696 193.775 168.919 171.295 168.919Z" fill="#4450E4"/>
<path d="M179.889 156.925C179.375 156.466 179.035 155.812 178.99 155.07C178.899 153.575 180.035 152.291 181.53 152.2C184.244 152.033 186.926 151.276 189.286 150.011C191.923 148.596 193.645 146.845 194.436 145.928C195.374 144.838 197.327 142.573 198.037 139.214C199.026 134.536 196.965 130.499 196.034 128.98C195.251 127.705 195.652 126.036 196.927 125.254C198.203 124.471 199.873 124.872 200.654 126.147C202.233 128.72 204.681 133.986 203.34 140.335C202.342 145.056 199.678 148.146 198.541 149.466C197.275 150.935 195.086 153.051 191.849 154.787C188.804 156.42 185.351 157.396 181.861 157.61C181.108 157.655 180.41 157.39 179.889 156.925Z" fill="white"/>
<path d="M145.28 91.8274C148.319 89.5614 158.303 82.7107 172.746 82.9009C186.714 83.085 196.286 89.7418 199.353 92.0737" stroke="#262626" stroke-width="0.4147" stroke-miterlimit="10" stroke-linecap="round" stroke-linejoin="round"/>
<path d="M97.4926 29.6211C97.9531 27.2314 98.5063 25.3427 99.1516 23.9555C99.7969 22.5675 100.763 21.3682 102.05 20.3561C102.798 19.7445 103.607 19.2496 104.479 18.8708C105.349 18.4928 106.165 18.0728 106.927 17.6101C107.687 17.1482 108.36 16.595 108.947 15.9519C109.534 15.3089 109.94 14.4008 110.166 13.2254C110.549 11.2416 110.269 9.74882 109.328 8.74791C108.386 7.74775 107.166 7.10244 105.668 6.81422C103.521 6.40023 101.927 6.71391 100.888 7.7515C99.8471 8.79059 99.0311 10.3028 98.4382 12.2882L90.6016 10.7774C90.9841 8.79358 91.6549 7.05303 92.6154 5.55803C93.5751 4.06378 94.7624 2.86373 96.1758 1.96014C97.5885 1.05655 99.1943 0.462894 100.992 0.179166C102.789 -0.104563 104.701 -0.0514099 106.727 0.339372C111.1 1.18232 114.381 2.73946 116.569 5.00854C118.756 7.27912 119.464 10.4181 118.691 14.4277C118.441 15.7243 118.091 16.8323 117.641 17.7539C117.19 18.6747 116.625 19.4794 115.947 20.1682C115.268 20.8562 114.477 21.4708 113.575 22.0105C112.673 22.551 111.666 23.0916 110.553 23.6336C109.529 24.1509 108.688 24.6502 108.027 25.1316C107.367 25.6137 106.832 26.1512 106.425 26.7441C106.016 27.3377 105.704 27.9816 105.486 28.674C105.269 29.3673 105.074 30.1601 104.903 31.0502L97.4926 29.6211ZM94.99 41.2988L96.5239 33.341L104.725 34.9213L103.191 42.8792L94.99 41.2988Z" fill="#4450E4"/>
<path d="M31.2708 55.3205C31.029 53.3928 30.9811 51.8222 31.127 50.6094C31.273 49.3966 31.7095 48.2467 32.4364 47.1597C32.8526 46.5099 33.3445 45.9343 33.9119 45.4312C34.4786 44.9288 34.9944 44.4078 35.4578 43.868C35.9205 43.329 36.2948 42.7421 36.5808 42.1088C36.866 41.4754 36.9498 40.6856 36.8308 39.7379C36.6302 38.1373 36.0485 37.0735 35.0858 36.5472C34.1238 36.021 33.0375 35.8338 31.8292 35.9858C30.0969 36.2036 28.965 36.8355 28.4335 37.8805C27.9005 38.9271 27.6557 40.2769 27.6976 41.9306L21.3762 42.7249C21.1748 41.1243 21.2534 39.6376 21.612 38.2646C21.9706 36.8924 22.574 35.6878 23.4237 34.6517C24.2726 33.6164 25.3439 32.7682 26.639 32.1072C27.9327 31.4469 29.397 31.0142 31.0305 30.809C34.5587 30.3659 37.4342 30.7349 39.6569 31.9163C41.8788 33.0976 43.1934 35.3053 43.5999 38.5393C43.7309 39.5852 43.7399 40.5135 43.6261 41.3242C43.5115 42.135 43.2825 42.8859 42.9381 43.5761C42.593 44.2663 42.1453 44.9288 41.5943 45.5622C41.0426 46.1963 40.4122 46.8558 39.7025 47.5423C39.0535 48.1884 38.5384 48.776 38.1566 49.3046C37.7748 49.8338 37.5023 50.3743 37.3399 50.9253C37.1767 51.4771 37.0981 52.043 37.1048 52.6225C37.1108 53.2026 37.1595 53.8524 37.25 54.5704L31.2708 55.3205ZM32.2627 64.8033L31.4564 58.3831L38.072 57.5522L38.8783 63.9723L32.2627 64.8033Z" fill="#4450E4"/>
</g>
</svg>
