<svg viewBox="0 0 14 14" fill="none" xmlns="http://www.w3.org/2000/svg">
<path d="M6.65015 0.714276C6.82516 0.539628 7.11708 0.539526 7.35034 0.714276L12.6003 4.79338C12.7751 4.90988 12.8337 5.08453 12.8337 5.2592V11.6684C12.8337 12.6588 12.0752 13.4163 11.0837 13.4164H2.91675C1.92508 13.4164 1.16675 12.6589 1.16675 11.6684V5.2592C1.16678 5.08446 1.22522 4.90988 1.40015 4.79338L6.65015 0.714276ZM2.33374 5.55021V11.6684C2.33374 12.018 2.56675 12.2514 2.91675 12.2514H4.66675V7.00725C4.6668 6.65782 4.89998 6.42438 5.24976 6.42424H8.74976C9.09972 6.42424 9.33369 6.65771 9.33374 7.00725V12.2514H11.0837C11.4336 12.2512 11.6667 12.0179 11.6667 11.6684V5.55021L6.99976 1.93791L2.33374 5.55021ZM5.83374 12.2514H8.16675V7.59025H5.83374V12.2514Z" fill="black"/>
<mask id="mask0_1_962" style="mask-type:luminance" maskUnits="userSpaceOnUse" x="1" y="0" width="12" height="14">
<path d="M6.65015 0.714276C6.82516 0.539628 7.11708 0.539526 7.35034 0.714276L12.6003 4.79338C12.7751 4.90988 12.8337 5.08453 12.8337 5.2592V11.6684C12.8337 12.6588 12.0752 13.4163 11.0837 13.4164H2.91675C1.92508 13.4164 1.16675 12.6589 1.16675 11.6684V5.2592C1.16678 5.08446 1.22522 4.90988 1.40015 4.79338L6.65015 0.714276ZM2.33374 5.55021V11.6684C2.33374 12.018 2.56675 12.2514 2.91675 12.2514H4.66675V7.00725C4.6668 6.65782 4.89998 6.42438 5.24976 6.42424H8.74976C9.09972 6.42424 9.33369 6.65771 9.33374 7.00725V12.2514H11.0837C11.4336 12.2512 11.6667 12.0179 11.6667 11.6684V5.55021L6.99976 1.93791L2.33374 5.55021ZM5.83374 12.2514H8.16675V7.59025H5.83374V12.2514Z" fill="white"/>
</mask>
<g mask="url(#mask0_1_962)">
<rect width="14" height="14" fill="#3666EE"/>
</g>
</svg>
