<svg width="19" height="19" viewBox="0 0 19 19" fill="none" xmlns="http://www.w3.org/2000/svg">
<path d="M17.575 0L1.425 0C1.04707 0 0.684612 0.150134 0.417373 0.417373C0.150134 0.684612 0 1.04707 0 1.425L0 17.575C0 17.9529 0.150134 18.3154 0.417373 18.5826C0.684612 18.8499 1.04707 19 1.425 19H17.575C17.9529 19 18.3154 18.8499 18.5826 18.5826C18.8499 18.3154 19 17.9529 19 17.575V1.425C19 1.04707 18.8499 0.684612 18.5826 0.417373C18.3154 0.150134 17.9529 0 17.575 0ZM5.7 16.15H2.85L2.85 7.6H5.7L5.7 16.15ZM4.275 5.9375C3.94837 5.92816 3.63174 5.82278 3.36466 5.63452C3.09759 5.44626 2.89191 5.18347 2.77333 4.87899C2.65475 4.5745 2.62853 4.24182 2.69794 3.92252C2.76735 3.60322 2.92932 3.31145 3.16361 3.08367C3.39789 2.8559 3.69411 2.70221 4.01524 2.64182C4.33637 2.58143 4.66817 2.61701 4.9692 2.74412C5.27022 2.87122 5.52712 3.08422 5.70778 3.35649C5.88844 3.62876 5.98487 3.94824 5.985 4.275C5.9775 4.72183 5.79342 5.14753 5.473 5.45905C5.15258 5.77057 4.72187 5.94258 4.275 5.9375ZM16.15 16.15H13.3V11.647C13.3 10.298 12.73 9.8135 11.989 9.8135C11.7717 9.82796 11.5595 9.88521 11.3644 9.98194C11.1694 10.0787 10.9953 10.213 10.8523 10.3772C10.7093 10.5414 10.6001 10.7322 10.5311 10.9387C10.4621 11.1452 10.4345 11.3633 10.45 11.5805C10.4453 11.6247 10.4453 11.6693 10.45 11.7135V16.15H7.6L7.6 7.6H10.355V8.835C10.6329 8.41225 11.0147 8.06794 11.4638 7.83506C11.913 7.60218 12.4144 7.48853 12.92 7.505C14.3925 7.505 16.112 8.322 16.112 10.982L16.15 16.15Z" fill="#0A66C2"/>
</svg>
