<svg width="18" height="18" viewBox="0 0 18 18" fill="none" xmlns="http://www.w3.org/2000/svg">
<path d="M9.75 6.375H10.125V3.52226C10.125 3.23382 10.3588 3 10.6472 3C10.7925 3 10.9312 3.06046 11.03 3.16689L15.4948 7.9752C15.6589 8.15183 15.75 8.38395 15.75 8.625C15.75 8.86605 15.6589 9.09817 15.4948 9.2748L11.03 14.0831C10.9312 14.1896 10.7925 14.25 10.6472 14.25C10.3588 14.25 10.125 14.0161 10.125 13.7278V10.875C5.95916 10.875 3.71016 13.8872 3.14399 14.7635C3.05053 14.9082 2.89285 15 2.72063 15C2.46071 15 2.25 14.7893 2.25 14.5294V13.875C2.25 9.7329 5.60786 6.375 9.75 6.375Z" stroke="#3666EE" stroke-width="1.125" stroke-linejoin="round"/>
</svg>
