<svg width="18" height="18" viewBox="0 0 18 18" fill="none" xmlns="http://www.w3.org/2000/svg">
<path d="M13.5 13.5C15.1569 13.5 16.5 10.8137 16.5 7.5C16.5 4.18629 15.1569 1.5 13.5 1.5C11.8431 1.5 10.5 4.18629 10.5 7.5C10.5 10.8137 11.8431 13.5 13.5 13.5Z" stroke="currentColor" stroke-width="1.125"/>
<path d="M13.5 1.5C11.1727 1.5 6.34884 3.28321 3.57829 4.39029C2.30956 4.89726 1.5 6.13374 1.5 7.5C1.5 8.86627 2.30956 10.1027 3.57829 10.6097C6.34884 11.7168 11.1727 13.5 13.5 13.5" stroke="currentColor" stroke-width="1.125"/>
<path d="M8.25 16.5L6.79255 15.6977C5.20573 14.8243 4.3099 13.06 4.5341 11.25" stroke="currentColor" stroke-width="1.125" stroke-linecap="round" stroke-linejoin="round"/>
</svg>
