<svg viewBox="0 0 18 18" fill="none" xmlns="http://www.w3.org/2000/svg">
<path d="M8.9415 3.59253C12.5222 2.37184 14.3125 1.7615 15.2755 2.72446C16.2385 3.68742 15.6281 5.47778 14.4075 9.0585L13.5762 11.4969C12.6388 14.2469 12.17 15.6218 11.3973 15.7356C11.1896 15.7662 10.9746 15.7478 10.769 15.6818C10.0046 15.4364 9.60052 13.9867 8.79232 11.0873C8.61307 10.4441 8.52345 10.1225 8.3193 9.8769C8.26005 9.80565 8.19435 9.73995 8.1231 9.6807C7.87747 9.47655 7.55587 9.38693 6.91278 9.20768C4.01333 8.39948 2.5636 7.99538 2.31817 7.23095C2.25219 7.02543 2.23377 6.8104 2.26437 6.60266C2.37816 5.82999 3.75314 5.36126 6.5031 4.42379L8.9415 3.59253Z" stroke="currentColor" stroke-width="1.125"/>
</svg>
