<svg width="18" height="18" viewBox="0 0 18 18" fill="none" xmlns="http://www.w3.org/2000/svg">
<path d="M7.25 5.78573V4.80995C7.25 3.71125 7.70857 2.76418 8.38425 1.9658C8.64705 1.65526 8.77845 1.5 9 1.5C9.22155 1.5 9.35295 1.65526 9.61575 1.9658C10.2914 2.76418 10.75 3.71125 10.75 4.80995V5.78573C10.75 6.5893 10.75 6.81777 11.2355 7.16925C11.6239 7.41893 12 7.66073 12 8.14485C12 8.73218 11.75 9 11.2018 9H6.79811C6.25 9 6 8.73218 6 8.14485C6 7.66073 6.3761 7.41893 6.7645 7.16925C7.25 6.81777 7.25 6.5893 7.25 5.78573Z" stroke="#3666EE" stroke-linejoin="round"/>
<path d="M14.625 16.5C15.6605 16.5 16.5 15.6046 16.5 14.5C16.5 13.3954 15.6605 12.5 14.625 12.5C14.625 11.3954 13.7855 10.5 12.75 10.5" stroke="#3666EE" stroke-linecap="round" stroke-linejoin="round"/>
<path d="M3.375 16.5C2.33947 16.5 1.5 15.6046 1.5 14.5C1.5 13.3954 2.33947 12.5 3.375 12.5C3.375 11.3954 4.21447 10.5 5.25 10.5" stroke="#3666EE" stroke-linecap="round" stroke-linejoin="round"/>
<path d="M7.5 11.25V15" stroke="#3666EE" stroke-linecap="round"/>
<path d="M10.5 11.25V12.75" stroke="#3666EE" stroke-linecap="round"/>
</svg>
