<svg width="79" height="84" viewBox="0 0 79 84" fill="none" xmlns="http://www.w3.org/2000/svg">
<path d="M70.2927 83.3454H4.81863C2.2551 83.3454 0.1698 81.2598 0.1698 78.6962V29.5265C0.1698 26.9633 2.25542 24.8777 4.81863 24.8777H70.2931C72.8566 24.8777 74.9419 26.9633 74.9419 29.5265V78.6966C74.9416 81.2598 72.8563 83.3454 70.2927 83.3454ZM4.81863 25.1676C2.41526 25.1676 0.459691 27.1228 0.459691 29.5265V78.6966C0.459691 81.1003 2.41494 83.0555 4.81863 83.0555H70.2931C72.6964 83.0555 74.652 81.1003 74.652 78.6966V29.5265C74.652 27.1231 72.6964 25.1676 70.2931 25.1676H4.81863Z" fill="#B3DCFF"/>
<path d="M77.9945 25.3285V74.4982C77.9945 76.9859 75.978 79.0023 73.4907 79.0023H8.01662C5.529 79.0023 3.51257 76.9859 3.51257 74.4982V25.3285C3.51257 22.8409 5.529 20.8245 8.01662 20.8245H73.4907C75.9784 20.8245 77.9945 22.8409 77.9945 25.3285Z" fill="#E3F2FF"/>
<path d="M77.9945 25.3285V26.6021H3.51257V25.3285C3.51257 22.8409 5.529 20.8245 8.01662 20.8245H73.4907C75.9784 20.8245 77.9945 22.8409 77.9945 25.3285Z" fill="#4DA8F2"/>
<path d="M33.3253 43.3419H12.3061C11.3454 43.3419 10.5664 42.5629 10.5664 41.6022V36.0937C10.5664 35.133 11.3451 34.354 12.3061 34.354H33.3253C34.2859 34.354 35.0649 35.133 35.0649 36.0937V41.6022C35.0649 42.5629 34.2859 43.3419 33.3253 43.3419Z" fill="#B3DCFF"/>
<path d="M59.7448 56.8563H40.6943C40.4441 56.8563 40.2413 56.6535 40.2413 56.4033V55.8594C40.2413 55.6093 40.4441 55.4065 40.6943 55.4065H59.7448C59.9949 55.4065 60.1977 55.6093 60.1977 55.8594V56.4033C60.1977 56.6535 59.9949 56.8563 59.7448 56.8563Z" fill="#B3DCFF"/>
<path d="M59.7448 40.2884H40.6943C40.4441 40.2884 40.2413 40.0856 40.2413 39.8355V39.2916C40.2413 39.0414 40.4441 38.8386 40.6943 38.8386H59.7448C59.9949 38.8386 60.1977 39.0414 60.1977 39.2916V39.8355C60.1977 40.0856 59.9949 40.2884 59.7448 40.2884Z" fill="#B3DCFF"/>
<path d="M59.7448 62.1238H40.6943C40.4441 62.1238 40.2413 61.9213 40.2413 61.6712V61.1276C40.2413 60.8774 40.4441 60.6743 40.6943 60.6743H59.7448C59.9949 60.6743 60.1977 60.8774 60.1977 61.1276V61.6712C60.1977 61.9213 59.9949 62.1238 59.7448 62.1238Z" fill="#B3DCFF"/>
<path d="M59.7448 45.5554H40.6943C40.4441 45.5554 40.2413 45.353 40.2413 45.1028V44.5592C40.2413 44.309 40.4441 44.106 40.6943 44.106H59.7448C59.9949 44.106 60.1977 44.309 60.1977 44.5592V45.1028C60.1977 45.353 59.9949 45.5554 59.7448 45.5554Z" fill="#B3DCFF"/>
<path d="M67.7396 57.313L66.0838 55.8693C65.948 55.7511 65.9339 55.5451 66.0521 55.4096C66.1703 55.2738 66.3766 55.2594 66.5124 55.3779L67.6832 56.3984L69.353 54.5361C69.4731 54.4022 69.6797 54.3907 69.8136 54.5111C69.9475 54.6312 69.9587 54.8375 69.8386 54.9717L67.7396 57.313Z" fill="#4DA8F2"/>
<path d="M67.7396 40.7451L66.0838 39.3014C65.948 39.1832 65.9339 38.9772 66.0521 38.8417C66.1703 38.7059 66.3766 38.6915 66.5124 38.81L67.6832 39.8306L69.353 37.9682C69.4731 37.8343 69.6797 37.8228 69.8136 37.9432C69.9475 38.0634 69.9587 38.2697 69.8386 38.4039L67.7396 40.7451Z" fill="#4DA8F2"/>
<path d="M67.7391 62.9062L66.0833 61.4628C65.9475 61.3443 65.9334 61.138 66.0516 61.0022C66.1698 60.8664 66.3761 60.8523 66.5119 60.9705L67.6827 61.9914L69.3525 60.129C69.4726 59.9948 69.6792 59.9836 69.8131 60.1037C69.947 60.2242 69.9582 60.4301 69.8381 60.5643L67.7391 62.9062Z" fill="#4DA8F2"/>
<path d="M67.7389 46.3393L66.0832 44.896C65.9474 44.7774 65.9333 44.5711 66.0515 44.4353C66.1697 44.2995 66.376 44.2854 66.5118 44.4036L67.6826 45.4245L69.3524 43.5621C69.4725 43.4279 69.6791 43.4167 69.813 43.5368C69.9469 43.6573 69.9581 43.8632 69.838 43.9974L67.7389 46.3393Z" fill="#4DA8F2"/>
<path d="M59.7448 67.7153H40.6943C40.4441 67.7153 40.2413 67.5125 40.2413 67.2626V66.7187C40.2413 66.4689 40.4441 66.2661 40.6943 66.2661H59.7448C59.9949 66.2661 60.1977 66.4689 60.1977 66.7187V67.2626C60.1977 67.5125 59.9949 67.7153 59.7448 67.7153Z" fill="#B3DCFF"/>
<path d="M59.7446 51.1469H40.6941C40.444 51.1469 40.2412 50.9441 40.2412 50.6943V50.1504C40.2412 49.9005 40.444 49.6978 40.6941 49.6978H59.7446C59.9948 49.6978 60.1976 49.9005 60.1976 50.1504V50.6943C60.1976 50.9441 59.9948 51.1469 59.7446 51.1469Z" fill="#B3DCFF"/>
<path d="M67.7389 68.4993L66.0832 67.0556C65.9474 66.9374 65.9333 66.7311 66.0515 66.5956C66.1697 66.4598 66.376 66.4457 66.5118 66.5639L67.6826 67.5851L69.3524 65.7224C69.4725 65.5886 69.6791 65.5773 69.813 65.6978C69.9469 65.8179 69.9581 66.0239 69.838 66.1584L67.7389 68.4993Z" fill="#4DA8F2"/>
<path d="M67.7396 51.9309L66.0838 50.4873C65.948 50.3691 65.9339 50.1628 66.0521 50.0273C66.1703 49.8915 66.3766 49.8774 66.5124 49.9956L67.6832 51.0168L69.353 49.1541C69.4731 49.0202 69.6797 49.009 69.8136 49.1294C69.9475 49.2495 69.9587 49.4555 69.8386 49.59L67.7396 51.9309Z" fill="#4DA8F2"/>
<g opacity="0.78">
<path d="M33.3253 55.3007H12.3061C11.3454 55.3007 10.5664 54.5216 10.5664 53.561V48.0527C10.5664 47.0921 11.3454 46.3127 12.3061 46.3127H33.3253C34.2862 46.3127 35.0649 47.0921 35.0649 48.0527V53.561C35.0646 54.5216 34.2859 55.3007 33.3253 55.3007Z" fill="#4DA8F2"/>
</g>
<path d="M61.2183 0.506429L61.1523 0.224227C61.6649 0.104426 61.9298 0.000960966 61.9326 0L62.039 0.269712C62.0275 0.273876 61.7513 0.381824 61.2183 0.506429Z" fill="#C2BEBC"/>
<path d="M10.7363 62.7095H8.50684V70.8082H10.7363V62.7095Z" fill="#78C2FF"/>
<path d="M13.9079 61.8916H11.6785V70.8074H13.9079V61.8916Z" fill="#78C2FF"/>
<path d="M17.124 63.5896H14.8945V70.8087H17.124V63.5896Z" fill="#78C2FF"/>
<path d="M20.3388 60.2441H18.1094V70.809H20.3388V60.2441Z" fill="#78C2FF"/>
<path d="M23.7128 61.2949H21.4834V70.8075H23.7128V61.2949Z" fill="#78C2FF"/>
<path d="M27.1318 62.7095H24.9023V70.8082H27.1318V62.7095Z" fill="#78C2FF"/>
<path d="M30.3037 61.8916H28.0742V70.8074H30.3037V61.8916Z" fill="#78C2FF"/>
<path d="M33.5192 63.5898H31.2898V70.8089H33.5192V63.5898Z" fill="#78C2FF"/>
</svg>
