<svg xmlns="http://www.w3.org/2000/svg" viewBox="0 0 18 18" fill="none">
<path d="M11.25 5.625C11.25 3.55393 9.57105 1.875 7.5 1.875C5.42893 1.875 3.75 3.55393 3.75 5.625C3.75 7.69605 5.42893 9.375 7.5 9.375C9.57105 9.375 11.25 7.69605 11.25 5.625Z" stroke="currentColor" stroke-width="1.125" stroke-linecap="round" stroke-linejoin="round"/>
<path d="M2.25 14.625C2.25 11.7255 4.60051 9.375 7.5 9.375C8.3052 9.375 9.06802 9.55628 9.75 9.8802" stroke="currentColor" stroke-width="1.125" stroke-linecap="round" stroke-linejoin="round"/>
<path d="M11.6454 11.1981C13.0594 10.7161 13.7664 10.4751 14.1466 10.8553C14.5269 11.2356 14.2859 11.9426 13.8039 13.3566L13.4756 14.3195C13.1054 15.4055 12.9203 15.9484 12.6151 15.9934C12.5331 16.0054 12.4482 15.9982 12.367 15.9721C12.0652 15.8752 11.9056 15.3027 11.5865 14.1577C11.5157 13.9038 11.4803 13.7768 11.3997 13.6798C11.3763 13.6517 11.3503 13.6257 11.3222 13.6023C11.2252 13.5217 11.0982 13.4863 10.8442 13.4155C9.69926 13.0964 9.12677 12.9368 9.02985 12.6349C9.00379 12.5538 8.99652 12.4688 9.0086 12.3868C9.05354 12.0817 9.59651 11.8966 10.6825 11.5264L11.6454 11.1981Z" stroke="currentColor"/>
</svg>
